<mxfile host="app.diagrams.net" agent="Mozilla/5.0 (Windows NT 10.0; Win64; x64) AppleWebKit/537.36 (KHTML, like Gecko) Chrome/131.0.0.0 Safari/537.36 Edg/131.0.0.0" version="24.9.3">
  <diagram name="第 1 页" id="qL5TvmwJksoJhdvZfleZ">
    <mxGraphModel dx="1302" dy="715" grid="0" gridSize="10" guides="1" tooltips="1" connect="1" arrows="1" fold="1" page="1" pageScale="1" pageWidth="827" pageHeight="1169" math="0" shadow="0">
      <root>
        <mxCell id="0" />
        <mxCell id="1" parent="0" />
        <mxCell id="MtIZj1JQp46h2TDCY77N-3" value="" style="rounded=0;whiteSpace=wrap;html=1;" vertex="1" parent="1">
          <mxGeometry x="239" y="84" width="308" height="97" as="geometry" />
        </mxCell>
        <mxCell id="MtIZj1JQp46h2TDCY77N-2" value="权限配置文件" style="whiteSpace=wrap;html=1;shape=mxgraph.basic.document;strokeWidth=2;" vertex="1" parent="1">
          <mxGeometry x="468" y="107" width="61" height="50" as="geometry" />
        </mxCell>
      </root>
    </mxGraphModel>
  </diagram>
</mxfile>
